<?xml version="1.0" encoding="utf-8"?>
<!-- Generator: Adobe Illustrator 22.0.1, SVG Export Plug-In . SVG Version: 6.00 Build 0)  -->
<svg version="1.1" id="Layer_1" xmlns="http://www.w3.org/2000/svg" xmlns:xlink="http://www.w3.org/1999/xlink" x="0px" y="0px"
	 viewBox="0 0 1080 1080" style="enable-background:new 0 0 1080 1080;" xml:space="preserve">
<g>
	<path d="M935.5,140H758.2c0-20.1-16.3-36.4-36.4-36.4c-20.1,0-36.4,16.3-36.4,36.4H394.5c0-20.1-16.3-36.4-36.4-36.4
		c-20.1,0-36.4,16.3-36.4,36.4H144.5c-22.6,0-40.9,18.3-40.9,40.9v754.6c0,22.6,18.3,40.9,40.9,40.9h791c22.6,0,40.9-18.3,40.9-40.9
		V180.9C976.4,158.3,958.1,140,935.5,140z M903.7,903.7H176.3V394.5h727.3V903.7z M903.7,358.2H176.3V212.7h145.5v36.4
		c0,20.1,16.3,36.4,36.4,36.4c20.1,0,36.4-16.3,36.4-36.4v-36.4h290.9v36.4c0,20.1,16.3,36.4,36.4,36.4c20.1,0,36.4-16.3,36.4-36.4
		v-36.4h145.5V358.2z"/>
	<path d="M478.8,747.8c13.6,13.6,35.6,13.6,49.2,0l147.7-147.7c13.6-13.6,13.6-35.6,0-49.2c-13.6-13.6-35.6-13.6-49.2,0L503.4,674
		l-49.3-49.2c-13.6-13.6-35.6-13.6-49.2,0c-13.6,13.6-13.6,35.6,0,49.2L478.8,747.8z"/>
</g>
</svg>
