<?xml version="1.0" encoding="utf-8"?>
<!-- Generator: Adobe Illustrator 22.0.1, SVG Export Plug-In . SVG Version: 6.00 Build 0)  -->
<svg version="1.1" id="Layer_1" xmlns="http://www.w3.org/2000/svg" xmlns:xlink="http://www.w3.org/1999/xlink" x="0px" y="0px"
	 viewBox="0 0 1080 1080" style="enable-background:new 0 0 1080 1080;" xml:space="preserve">
<path d="M1010.3,326.2h-42.8c0-23.6-19.1-42.8-42.8-42.8H882c0-23.6-19.1-42.8-42.8-42.8h-42.8c-23.6,0-42.8,19.1-42.8,42.8v213.8
	H326.2V283.5c0-23.6-19.1-42.8-42.8-42.8h-42.8c-23.6,0-42.8,19.1-42.8,42.8h-42.8c-23.6,0-42.8,19.1-42.8,42.8H69.7
	c-23.6,0-42.8,19.1-42.8,42.8v342c0,23.6,19.1,42.8,42.8,42.8h42.8c0,23.6,19.1,42.8,42.8,42.8H198c0,23.6,19.1,42.8,42.8,42.8h42.8
	c23.6,0,42.8-19.1,42.8-42.8V582.8h427.6v213.8c0,23.6,19.1,42.8,42.8,42.8h42.8c23.6,0,42.8-19.1,42.8-42.8h42.8
	c23.6,0,42.8-19.1,42.8-42.8h42.8c23.6,0,42.8-19.1,42.8-42.8V369C1053.1,345.3,1033.9,326.2,1010.3,326.2z M112.4,711H69.7V369
	h42.8V711z M198,753.8h-42.8V711V369v-42.8H198V753.8z M283.5,796.5h-42.8v-42.8V326.2v-42.8h42.8V796.5z M839.3,326.2v427.6v42.8
	h-42.8V283.5h42.8V326.2z M924.8,369v342v42.8H882V326.2h42.8V369z M1010.3,711h-42.8V369h42.8V711z"/>
</svg>
