<?xml version="1.0" encoding="utf-8"?>
<!-- Generator: Adobe Illustrator 22.0.1, SVG Export Plug-In . SVG Version: 6.00 Build 0)  -->
<svg version="1.1" id="Icon" xmlns="http://www.w3.org/2000/svg" xmlns:xlink="http://www.w3.org/1999/xlink" x="0px" y="0px"
	 viewBox="0 0 1080 1080" style="enable-background:new 0 0 1080 1080;" xml:space="preserve">
<style type="text/css">
	.st0{fill:#FEFEFE;}
</style>
<g>
	<path d="M324.8,187.5c77.5-2.4,154.9-6.3,232.4-6.4c37.5,0,75,7.2,112.5,11.3c68.6,7.6,137.2,15.3,205.8,23
		c39.5,4.4,78.9,8.9,118.5,12.9c7.9,0.8,10.4,3.5,10.1,11.7c-0.8,24.1-0.9,48.2-0.6,72.3c0.1,7.6-2.2,9.3-9.5,9.3
		c-36.5-0.4-73.1,0.1-109.6-0.4c-8.6-0.1-10.5,2.5-10.5,10.7c-0.4,81.5-1.1,163-2.2,244.6c-0.1,8.2,2,11.1,10.3,11.5
		c35.7,1.6,71.4,4.1,107.1,5.6c8.3,0.3,10.8,2.5,10.5,10.9c-0.8,23.7-0.8,47.4-0.6,71.1c0.1,6.5-1.7,9.7-8.1,12.2
		c-141.2,55.3-282.3,110.8-423.4,166.5c-13.4,5.3-26.3,0.5-39.1-1c-127.1-14.8-254.2-30.2-381.3-45.4c-18.3-2.2-36.6-4.8-55-6.6
		c-5.8-0.6-7.3-2.7-7.4-8.1c-0.3-34.9-0.6-69.9-1.7-104.8c-0.3-8.6,4.8-8.7,10.2-9.7c42.1-8.2,84.2-16.6,126.4-24.1
		c8.6-1.5,10.9-4.4,10.8-12.9c-1.1-104.8-1.9-209.6-2.4-314.4c0-8-2.2-10-10-10c-42.6,0.4-85.1-0.1-127.7,0.4
		c-9,0.1-11.6-2.1-11.5-11.3c0.3-33.7,0-67.5-0.8-101.2c-0.2-8.8,2.9-10.5,10.8-10.7c78.7-2,157.4-4.4,236-6.7
		C324.8,187.6,324.8,187.5,324.8,187.5z"/>
	<path class="st0" d="M624.3,317.3c75.1,0,150.2,2.7,225.3,2.3c9.4,0,12,2.4,11.9,11.9c-1.2,83.1-1.8,166.2-2.3,249.3
		c0,7.1-1.8,10.3-9.1,12.1c-150.7,37.6-301.4,75.3-452.1,113.3c-8.8,2.2-8.8-1.5-8.8-8.1c-0.3-123.3-0.6-246.5-1.3-369.8
		c-0.1-9,2.2-11.4,11.3-11.3C474.1,317.5,549.2,317.3,624.3,317.3C624.3,318.1,624.3,316.5,624.3,317.3z"/>
	<path class="st0" d="M775.4,305.3c-67.5,0-134.9-0.3-202.4,0.3c-11.2,0.1-13-3.4-12.8-13.4c0.7-29.3,0.5-58.6,0.1-87.9
		c-0.1-8,1-11,10.3-9.9c99.3,11.4,198.6,22.4,297.9,33.4c37.1,4.1,74.2,8.4,111.3,12.2c8.1,0.8,11.9,3.1,11.1,12.4
		c-1.2,15.2-1.4,30.5-0.9,45.7c0.3,8.9-3.1,10.4-11.1,10.3C911.1,308.1,843.3,305.3,775.4,305.3
		C775.4,304.3,775.4,306.3,775.4,305.3z"/>
	<path class="st0" d="M985.5,608.2c0,21.1-0.4,40.8,0.2,60.4c0.2,8.1-5.2,8.9-10.2,10.9c-88.6,34.9-177.2,69.8-265.8,104.6
		c-47.3,18.6-94.6,37.2-141.9,55.7c-2.1,0.8-4.1,2.7-7.4,1.2c0-33.7,0.2-67.8-0.1-101.9c-0.1-7.2,4.7-7.1,9.2-8.5
		c94.8-27.9,189.7-55.9,284.5-83.9C897.6,634,941.3,621.2,985.5,608.2z"/>
</g>
</svg>
